<svg width="148" height="74" viewBox="0 0 148 74" fill="none" xmlns="http://www.w3.org/2000/svg">
<path fill-rule="evenodd" clip-rule="evenodd" d="M92.8246 4.9H96.4247L90.7246 11.4L96.7246 17.7H92.6246L88.7246 13.6L88.3246 14L84.9247 17.7L83.4247 19.3C82.7247 20 81.2246 21.1 79.2246 21.3H77.7246C75.2246 21.3 73.5247 19.8 73.5247 17.5C73.5247 15.2 75.3247 13.9 78.5247 13.7L81.6246 13.5V12.4C81.6246 11.3 80.9247 10.7 79.4247 10.7C78.2247 10.7 77.3246 11.1 77.1246 11.9H74.0247C74.2247 9.6 76.4246 8.1 79.6246 8.1C82.2246 8.1 84.1246 9.1 84.6246 10.9C84.7246 11.1 84.8246 11.6 84.8246 12V0H88.2246V9.8L92.8246 4.9ZM78.9247 19C80.5247 19 81.6246 18 81.6246 16.7V15.8L79.0247 16C77.6247 16.2 76.8246 16.7 76.8246 17.6C76.9246 18.4 77.7247 19 78.9247 19ZM105.925 12V11.1C105.925 7.2 103.725 4.9 100.225 4.9C96.6246 4.9 94.3246 7.4 94.3246 11.4C94.3246 15.4 96.7247 17.7 100.425 17.7C103.425 17.7 105.325 16.3 105.825 14H102.725C102.425 14.8 101.525 15.2 100.225 15.2C98.5246 15.2 97.5247 14 97.4247 12.2V12H105.925ZM100.225 7.4C101.725 7.4 102.725 8.4 102.825 10H97.6246C97.6246 8.4 98.6246 7.4 100.225 7.4ZM70.5247 6.5L67.4247 9.7L65.2246 12.1H67.2246V18C67.2246 20.5 68.4247 21.5 71.5247 21.5C72.2247 21.5 72.7246 21.4 73.2246 21.3V18.9C73.0246 18.9 72.9246 18.9 72.8246 18.9C72.6246 18.9 72.5246 18.9 72.2246 18.9C71.0246 18.9 70.5247 18.4 70.5247 17.2V12H73.1246V9.4H70.5247V6.5ZM67.8246 26.9H75.4247C75.7247 26.9 76.0247 27.1 76.0247 27.5V39.7C77.9247 37.5 80.6247 36.5 83.9247 36.5C90.5247 36.5 95.5247 40.8 95.5247 50.2C95.5247 59.6 90.5247 63.8 83.9247 63.8C80.5247 63.8 77.9247 62.7 76.0247 60.6L75.5247 62.8C75.4247 63 75.2247 63.3 74.9247 63.3H67.7246C67.4246 63.3 67.1246 63.1 67.1246 62.7V27.7C67.2246 27.1 67.5246 26.9 67.8246 26.9ZM76.1246 52.4C76.1246 52.6 76.1246 52.8 76.2246 53C76.9246 55.7 78.7246 57 81.2246 57C84.3246 57 86.5247 55 86.5247 50.2C86.5247 45.3 84.3246 43.4 81.2246 43.4C78.9246 43.4 77.1246 44.6 76.2246 47.3C76.1246 47.5 76.1246 47.7 76.1246 48V52.4ZM119.625 72.6V37.6C119.625 37.3 119.825 37 120.225 37H127.325C127.525 37 127.825 37.2 127.925 37.5L128.425 39.7C130.325 37.5 133.025 36.5 136.325 36.5C142.925 36.5 147.925 40.7 147.925 50.1C147.925 59.5 143.025 63.8 136.325 63.8C133.025 63.8 130.325 62.7 128.425 60.6V72.8C128.425 73.1 128.225 73.4 127.825 73.4H120.225C119.925 73.2 119.625 72.9 119.625 72.6ZM128.525 52.2C128.525 52.4 128.525 52.6 128.625 52.9C129.425 55.6 131.225 56.8 133.625 56.8C136.725 56.8 138.925 54.8 138.925 50C138.925 45.2 136.725 43.2 133.625 43.2C131.125 43.2 129.325 44.4 128.625 47.2C128.525 47.4 128.525 47.6 128.525 47.8V52.2ZM105.225 26.9H97.6246C97.3246 26.9 97.0247 27.1 97.0247 27.5V62.5C97.0247 62.8 97.2246 63.1 97.6246 63.1H105.225C105.525 63.1 105.825 62.9 105.825 62.5V27.5C105.825 27.1 105.625 26.9 105.225 26.9ZM108.325 33V27.5C108.325 27.2 108.525 26.9 108.925 26.9H116.525C116.825 26.9 117.125 27.1 117.125 27.5V33C117.125 33.3 116.925 33.6 116.525 33.6H108.925C108.625 33.6 108.325 33.4 108.325 33ZM108.925 36.9H116.525C116.825 36.9 117.125 37.1 117.125 37.5V62.5C117.125 62.8 116.925 63.1 116.525 63.1H108.925C108.625 63.1 108.325 62.9 108.325 62.5V37.5C108.325 37.2 108.625 36.9 108.925 36.9Z" fill="black"/>
<path d="M29.8244 4.90002C22.7244 4.90002 15.3244 6.10002 10.3244 9.10002C2.12442 14.1 -0.275507 24 0.024493 33.1C0.224493 41 2.32452 49.4 7.92452 55.2C13.2245 60.7 24.1244 63.2 31.7244 63.2C32.0244 63.2 32.4245 63.4 32.4245 63.9V71.8C32.4245 72.5 33.0244 73.2 33.8244 73.2C33.9244 73.2 33.9245 73.2 34.0245 73.2C34.3245 73.2 34.6244 73 34.7244 72.9C38.4244 69.7 42.2245 66.4 45.9245 63.1C49.4245 59.9 53.3245 56.6 56.0245 52.7C61.7245 44.5 62.6244 33 60.7244 23.4C58.9244 14.2 52.3244 8.20002 43.2244 6.30002C39.3244 5.40002 34.6244 4.90002 29.8244 4.90002Z" fill="#00C6D7"/>
</svg>
